# xmcd
#
# Track frame offsets: 
#        150
#        17563
#        31992
#        47959
#        67101
#        87639
#        100892
#        119084
#        135905
#        147776
#        165446
#
# Disc length: 2443 seconds
#
# Revision: 1
# Processed by: cddbd v1.5.2PL0 Copyright (c) Steve Scherf et al.
# Submitted via: ExactAudioCopy v0.99pb5
#
DISCID=9609890b
DTITLE=Garth Brooks - In Pieces (Special Edition)
DYEAR=2005
DGENRE=Country
TTITLE0=Standing Outside The Fire
TTITLE1=The Night I Called The Old Man Out
TTITLE2=American Honky Tonk Bar Association
TTITLE3=One Night A Day
TTITLE4=Ain't Goin' Down (Till The Sun Comes Up)
TTITLE5=Anonymous
TTITLE6=Kickin' And Screamin'
TTITLE7=The Red Strokes
TTITLE8=Callin' Baton Rouge
TTITLE9=The Night Will Only Know
TTITLE10=The Cowboy Song
EXTD=
EXTT0=
EXTT1=
EXTT2=
EXTT3=
EXTT4=
EXTT5=
EXTT6=
EXTT7=
EXTT8=
EXTT9=
EXTT10=
PLAYORDER=
